# xmcd
#
# Track frame offsets:
#	150
#	12975
#	24065
#	35225
#	56550
#	71082
#	82775
#	99825
#	113700
#	135435
#	146725
#	162860
#	175767
#	189350
#
# Disc length: 2738 seconds
#
# Revision: 1
# Processed by: cddbd v1.5.2PL0 Copyright (c) Steve Scherf et al.
# Submitted via: audiograbber 1.83.01
#
DISCID=aa0ab00e
DTITLE=Country Blues Project - Live
DYEAR=1992
DGENRE=Blues
TTITLE0=Me And My Chauffeur
TTITLE1=Dinner Blues
TTITLE2=Soo Cow Soo
TTITLE3=Mean Mistreatin' Mama
TTITLE4=Tired Of Livin' All Alone
TTITLE5=Old Country Rock
TTITLE6=Walking Blues
TTITLE7=Make Arrangements For Me
TTITLE8=Nuts About My Girl
TTITLE9=Future Blues
TTITLE10=Country Fool
TTITLE11=I Can't Be Satisfied
TTITLE12=Tight Like That
TTITLE13=Cold Winter Day
EXTD=Recorded at Jazzkeller Tübingen 1988
EXTT0=
EXTT1=
EXTT2=
EXTT3=
EXTT4=
EXTT5=
EXTT6=
EXTT7=Corrected.
EXTT8=
EXTT9=
EXTT10=
EXTT11=
EXTT12=
EXTT13=
PLAYORDER=
